ISO-10303-21;
HEADER;
FILE_DESCRIPTION(('FreeCAD Model'),'2;1');
FILE_NAME('Open CASCADE Shape Model','2024-10-18T17:46:42',(''),(''),
  'Open CASCADE STEP processor 7.7','Ondsel','Unknown');
FILE_SCHEMA(('AUTOMOTIVE_DESIGN { 1 0 10303 214 1 1 1 1 }'));
ENDSEC;
DATA;
#1 = APPLICATION_PROTOCOL_DEFINITION('international standard',
  'automotive_design',2000,#2);
#2 = APPLICATION_CONTEXT(
  'core data for automotive mechanical design processes');
#3 = SHAPE_DEFINITION_REPRESENTATION(#4,#10);
#4 = PRODUCT_DEFINITION_SHAPE('','',#5);
#5 = PRODUCT_DEFINITION('design','',#6,#9);
#6 = PRODUCT_DEFINITION_FORMATION('','',#7);
#7 = PRODUCT('Body','Body','',(#8));
#8 = PRODUCT_CONTEXT('',#2,'mechanical');
#9 = PRODUCT_DEFINITION_CONTEXT('part definition',#2,'design');
#10 = ADVANCED_BREP_SHAPE_REPRESENTATION('',(#11,#15),#952);
#11 = AXIS2_PLACEMENT_3D('',#12,#13,#14);
#12 = CARTESIAN_POINT('',(0.,0.,0.));
#13 = DIRECTION('',(0.,0.,1.));
#14 = DIRECTION('',(1.,0.,-0.));
#15 = MANIFOLD_SOLID_BREP('',#16);
#16 = CLOSED_SHELL('',(#17,#68,#183,#208,#233,#332,#357,#374,#402,#430,
    #447,#464,#481,#543,#568,#593,#618,#643,#668,#693,#713,#738,#755,
    #786,#810,#834,#858,#882,#899,#911,#923,#935));
#17 = ADVANCED_FACE('',(#18,#52),#63,.F.);
#18 = FACE_BOUND('',#19,.F.);
#19 = EDGE_LOOP('',(#20,#30,#38,#46));
#20 = ORIENTED_EDGE('',*,*,#21,.F.);
#21 = EDGE_CURVE('',#22,#24,#26,.T.);
#22 = VERTEX_POINT('',#23);
#23 = CARTESIAN_POINT('',(29.,58.509990925582,0.));
#24 = VERTEX_POINT('',#25);
#25 = CARTESIAN_POINT('',(29.,70.5,0.));
#26 = LINE('',#27,#28);
#27 = CARTESIAN_POINT('',(29.,58.509990925582,0.));
#28 = VECTOR('',#29,1.);
#29 = DIRECTION('',(3.02E-15,1.,0.));
#30 = ORIENTED_EDGE('',*,*,#31,.T.);
#31 = EDGE_CURVE('',#22,#32,#34,.T.);
#32 = VERTEX_POINT('',#33);
#33 = CARTESIAN_POINT('',(29.,58.509990925582,15.));
#34 = LINE('',#35,#36);
#35 = CARTESIAN_POINT('',(29.,58.509990925582,0.));
#36 = VECTOR('',#37,1.);
#37 = DIRECTION('',(0.,0.,1.));
#38 = ORIENTED_EDGE('',*,*,#39,.T.);
#39 = EDGE_CURVE('',#32,#40,#42,.T.);
#40 = VERTEX_POINT('',#41);
#41 = CARTESIAN_POINT('',(29.,70.5,15.));
#42 = LINE('',#43,#44);
#43 = CARTESIAN_POINT('',(29.,58.509990925582,15.));
#44 = VECTOR('',#45,1.);
#45 = DIRECTION('',(3.02E-15,1.,0.));
#46 = ORIENTED_EDGE('',*,*,#47,.F.);
#47 = EDGE_CURVE('',#24,#40,#48,.T.);
#48 = LINE('',#49,#50);
#49 = CARTESIAN_POINT('',(29.,70.5,0.));
#50 = VECTOR('',#51,1.);
#51 = DIRECTION('',(0.,0.,1.));
#52 = FACE_BOUND('',#53,.F.);
#53 = EDGE_LOOP('',(#54));
#54 = ORIENTED_EDGE('',*,*,#55,.T.);
#55 = EDGE_CURVE('',#56,#56,#58,.T.);
#56 = VERTEX_POINT('',#57);
#57 = CARTESIAN_POINT('',(29.,64.000001,10.8));
#58 = CIRCLE('',#59,3.3);
#59 = AXIS2_PLACEMENT_3D('',#60,#61,#62);
#60 = CARTESIAN_POINT('',(29.,64.000001,7.5));
#61 = DIRECTION('',(1.,0.,-0.));
#62 = DIRECTION('',(0.,0.,1.));
#63 = PLANE('',#64);
#64 = AXIS2_PLACEMENT_3D('',#65,#66,#67);
#65 = CARTESIAN_POINT('',(29.,58.509990925582,0.));
#66 = DIRECTION('',(-1.,3.02E-15,0.));
#67 = DIRECTION('',(3.02E-15,1.,0.));
#68 = ADVANCED_FACE('',(#69,#145,#156,#167),#178,.F.);
#69 = FACE_BOUND('',#70,.F.);
#70 = EDGE_LOOP('',(#71,#72,#81,#89,#97,#105,#113,#121,#130,#138));
#71 = ORIENTED_EDGE('',*,*,#21,.T.);
#72 = ORIENTED_EDGE('',*,*,#73,.T.);
#73 = EDGE_CURVE('',#24,#74,#76,.T.);
#74 = VERTEX_POINT('',#75);
#75 = CARTESIAN_POINT('',(28.5,71.,0.));
#76 = CIRCLE('',#77,0.5);
#77 = AXIS2_PLACEMENT_3D('',#78,#79,#80);
#78 = CARTESIAN_POINT('',(28.5,70.5,0.));
#79 = DIRECTION('',(-0.,0.,1.));
#80 = DIRECTION('',(0.,-1.,0.));
#81 = ORIENTED_EDGE('',*,*,#82,.T.);
#82 = EDGE_CURVE('',#74,#83,#85,.T.);
#83 = VERTEX_POINT('',#84);
#84 = CARTESIAN_POINT('',(7.105427357601E-15,71.,0.));
#85 = LINE('',#86,#87);
#86 = CARTESIAN_POINT('',(29.,71.,0.));
#87 = VECTOR('',#88,1.);
#88 = DIRECTION('',(-1.,-1.1E-16,0.));
#89 = ORIENTED_EDGE('',*,*,#90,.T.);
#90 = EDGE_CURVE('',#83,#91,#93,.T.);
#91 = VERTEX_POINT('',#92);
#92 = CARTESIAN_POINT('',(0.,5.329070518201E-15,0.));
#93 = LINE('',#94,#95);
#94 = CARTESIAN_POINT('',(0.,71.,0.));
#95 = VECTOR('',#96,1.);
#96 = DIRECTION('',(1.1E-16,-1.,0.));
#97 = ORIENTED_EDGE('',*,*,#98,.T.);
#98 = EDGE_CURVE('',#91,#99,#101,.T.);
#99 = VERTEX_POINT('',#100);
#100 = CARTESIAN_POINT('',(60.,0.,0.));
#101 = LINE('',#102,#103);
#102 = CARTESIAN_POINT('',(0.,-7.105427357601E-15,0.));
#103 = VECTOR('',#104,1.);
#104 = DIRECTION('',(1.,1.1E-16,0.));
#105 = ORIENTED_EDGE('',*,*,#106,.T.);
#106 = EDGE_CURVE('',#99,#107,#109,.T.);
#107 = VERTEX_POINT('',#108);
#108 = CARTESIAN_POINT('',(60.,71.,0.));
#109 = LINE('',#110,#111);
#110 = CARTESIAN_POINT('',(60.,0.,0.));
#111 = VECTOR('',#112,1.);
#112 = DIRECTION('',(-1.1E-16,1.,0.));
#113 = ORIENTED_EDGE('',*,*,#114,.T.);
#114 = EDGE_CURVE('',#107,#115,#117,.T.);
#115 = VERTEX_POINT('',#116);
#116 = CARTESIAN_POINT('',(31.5,71.,0.));
#117 = LINE('',#118,#119);
#118 = CARTESIAN_POINT('',(60.,71.,0.));
#119 = VECTOR('',#120,1.);
#120 = DIRECTION('',(-1.,-1.1E-16,0.));
#121 = ORIENTED_EDGE('',*,*,#122,.F.);
#122 = EDGE_CURVE('',#123,#115,#125,.T.);
#123 = VERTEX_POINT('',#124);
#124 = CARTESIAN_POINT('',(31.,70.5,0.));
#125 = CIRCLE('',#126,0.5);
#126 = AXIS2_PLACEMENT_3D('',#127,#128,#129);
#127 = CARTESIAN_POINT('',(31.5,70.5,0.));
#128 = DIRECTION('',(-0.,-0.,-1.));
#129 = DIRECTION('',(0.,-1.,0.));
#130 = ORIENTED_EDGE('',*,*,#131,.F.);
#131 = EDGE_CURVE('',#132,#123,#134,.T.);
#132 = VERTEX_POINT('',#133);
#133 = CARTESIAN_POINT('',(31.,58.509990925582,0.));
#134 = LINE('',#135,#136);
#135 = CARTESIAN_POINT('',(31.,58.509990925582,0.));
#136 = VECTOR('',#137,1.);
#137 = DIRECTION('',(-1.1E-16,1.,0.));
#138 = ORIENTED_EDGE('',*,*,#139,.F.);
#139 = EDGE_CURVE('',#22,#132,#140,.T.);
#140 = CIRCLE('',#141,5.6);
#141 = AXIS2_PLACEMENT_3D('',#142,#143,#144);
#142 = CARTESIAN_POINT('',(30.,53.,0.));
#143 = DIRECTION('',(0.,-0.,1.));
#144 = DIRECTION('',(1.,1.1E-16,0.));
#145 = FACE_BOUND('',#146,.F.);
#146 = EDGE_LOOP('',(#147));
#147 = ORIENTED_EDGE('',*,*,#148,.F.);
#148 = EDGE_CURVE('',#149,#149,#151,.T.);
#149 = VERTEX_POINT('',#150);
#150 = CARTESIAN_POINT('',(15.,10.,0.));
#151 = CIRCLE('',#152,5.);
#152 = AXIS2_PLACEMENT_3D('',#153,#154,#155);
#153 = CARTESIAN_POINT('',(10.,10.,0.));
#154 = DIRECTION('',(0.,0.,1.));
#155 = DIRECTION('',(1.,0.,0.));
#156 = FACE_BOUND('',#157,.F.);
#157 = EDGE_LOOP('',(#158));
#158 = ORIENTED_EDGE('',*,*,#159,.F.);
#159 = EDGE_CURVE('',#160,#160,#162,.T.);
#160 = VERTEX_POINT('',#161);
#161 = CARTESIAN_POINT('',(50.,15.,0.));
#162 = CIRCLE('',#163,5.);
#163 = AXIS2_PLACEMENT_3D('',#164,#165,#166);
#164 = CARTESIAN_POINT('',(50.,10.,0.));
#165 = DIRECTION('',(0.,-0.,1.));
#166 = DIRECTION('',(0.,1.,0.));
#167 = FACE_BOUND('',#168,.F.);
#168 = EDGE_LOOP('',(#169));
#169 = ORIENTED_EDGE('',*,*,#170,.F.);
#170 = EDGE_CURVE('',#171,#171,#173,.T.);
#171 = VERTEX_POINT('',#172);
#172 = CARTESIAN_POINT('',(35.,10.,0.));
#173 = CIRCLE('',#174,5.);
#174 = AXIS2_PLACEMENT_3D('',#175,#176,#177);
#175 = CARTESIAN_POINT('',(30.,10.,0.));
#176 = DIRECTION('',(0.,0.,1.));
#177 = DIRECTION('',(1.,0.,0.));
#178 = PLANE('',#179);
#179 = AXIS2_PLACEMENT_3D('',#180,#181,#182);
#180 = CARTESIAN_POINT('',(30.,35.927803017852,0.));
#181 = DIRECTION('',(0.,0.,1.));
#182 = DIRECTION('',(1.,1.1E-16,0.));
#183 = ADVANCED_FACE('',(#184),#203,.T.);
#184 = FACE_BOUND('',#185,.T.);
#185 = EDGE_LOOP('',(#186,#187,#195,#202));
#186 = ORIENTED_EDGE('',*,*,#73,.T.);
#187 = ORIENTED_EDGE('',*,*,#188,.T.);
#188 = EDGE_CURVE('',#74,#189,#191,.T.);
#189 = VERTEX_POINT('',#190);
#190 = CARTESIAN_POINT('',(28.5,71.,15.));
#191 = LINE('',#192,#193);
#192 = CARTESIAN_POINT('',(28.5,71.,0.));
#193 = VECTOR('',#194,1.);
#194 = DIRECTION('',(0.,0.,1.));
#195 = ORIENTED_EDGE('',*,*,#196,.F.);
#196 = EDGE_CURVE('',#40,#189,#197,.T.);
#197 = CIRCLE('',#198,0.5);
#198 = AXIS2_PLACEMENT_3D('',#199,#200,#201);
#199 = CARTESIAN_POINT('',(28.5,70.5,15.));
#200 = DIRECTION('',(-0.,0.,1.));
#201 = DIRECTION('',(0.,-1.,0.));
#202 = ORIENTED_EDGE('',*,*,#47,.F.);
#203 = CYLINDRICAL_SURFACE('',#204,0.5);
#204 = AXIS2_PLACEMENT_3D('',#205,#206,#207);
#205 = CARTESIAN_POINT('',(28.5,70.5,0.));
#206 = DIRECTION('',(0.,0.,1.));
#207 = DIRECTION('',(1.,-3.24E-15,0.));
#208 = ADVANCED_FACE('',(#209),#228,.F.);
#209 = FACE_BOUND('',#210,.T.);
#210 = EDGE_LOOP('',(#211,#212,#221,#227));
#211 = ORIENTED_EDGE('',*,*,#31,.T.);
#212 = ORIENTED_EDGE('',*,*,#213,.T.);
#213 = EDGE_CURVE('',#32,#214,#216,.T.);
#214 = VERTEX_POINT('',#215);
#215 = CARTESIAN_POINT('',(31.,58.509990925582,15.));
#216 = CIRCLE('',#217,5.6);
#217 = AXIS2_PLACEMENT_3D('',#218,#219,#220);
#218 = CARTESIAN_POINT('',(30.,53.,15.));
#219 = DIRECTION('',(0.,-0.,1.));
#220 = DIRECTION('',(1.,1.1E-16,0.));
#221 = ORIENTED_EDGE('',*,*,#222,.F.);
#222 = EDGE_CURVE('',#132,#214,#223,.T.);
#223 = LINE('',#224,#225);
#224 = CARTESIAN_POINT('',(31.,58.509990925582,0.));
#225 = VECTOR('',#226,1.);
#226 = DIRECTION('',(0.,0.,1.));
#227 = ORIENTED_EDGE('',*,*,#139,.F.);
#228 = CYLINDRICAL_SURFACE('',#229,5.6);
#229 = AXIS2_PLACEMENT_3D('',#230,#231,#232);
#230 = CARTESIAN_POINT('',(30.,53.,0.));
#231 = DIRECTION('',(0.,0.,-1.));
#232 = DIRECTION('',(1.,1.1E-16,0.));
#233 = ADVANCED_FACE('',(#234,#294,#305,#316),#327,.T.);
#234 = FACE_BOUND('',#235,.T.);
#235 = EDGE_LOOP('',(#236,#237,#238,#246,#254,#262,#270,#278,#287,#293)
  );
#236 = ORIENTED_EDGE('',*,*,#39,.T.);
#237 = ORIENTED_EDGE('',*,*,#196,.T.);
#238 = ORIENTED_EDGE('',*,*,#239,.T.);
#239 = EDGE_CURVE('',#189,#240,#242,.T.);
#240 = VERTEX_POINT('',#241);
#241 = CARTESIAN_POINT('',(7.105427357601E-15,71.,15.));
#242 = LINE('',#243,#244);
#243 = CARTESIAN_POINT('',(29.,71.,15.));
#244 = VECTOR('',#245,1.);
#245 = DIRECTION('',(-1.,-1.1E-16,0.));
#246 = ORIENTED_EDGE('',*,*,#247,.T.);
#247 = EDGE_CURVE('',#240,#248,#250,.T.);
#248 = VERTEX_POINT('',#249);
#249 = CARTESIAN_POINT('',(0.,5.329070518201E-15,15.));
#250 = LINE('',#251,#252);
#251 = CARTESIAN_POINT('',(0.,71.,15.));
#252 = VECTOR('',#253,1.);
#253 = DIRECTION('',(1.1E-16,-1.,0.));
#254 = ORIENTED_EDGE('',*,*,#255,.T.);
#255 = EDGE_CURVE('',#248,#256,#258,.T.);
#256 = VERTEX_POINT('',#257);
#257 = CARTESIAN_POINT('',(60.,0.,15.));
#258 = LINE('',#259,#260);
#259 = CARTESIAN_POINT('',(0.,-7.105427357601E-15,15.));
#260 = VECTOR('',#261,1.);
#261 = DIRECTION('',(1.,1.1E-16,0.));
#262 = ORIENTED_EDGE('',*,*,#263,.T.);
#263 = EDGE_CURVE('',#256,#264,#266,.T.);
#264 = VERTEX_POINT('',#265);
#265 = CARTESIAN_POINT('',(60.,71.,15.));
#266 = LINE('',#267,#268);
#267 = CARTESIAN_POINT('',(60.,0.,15.));
#268 = VECTOR('',#269,1.);
#269 = DIRECTION('',(-1.1E-16,1.,0.));
#270 = ORIENTED_EDGE('',*,*,#271,.T.);
#271 = EDGE_CURVE('',#264,#272,#274,.T.);
#272 = VERTEX_POINT('',#273);
#273 = CARTESIAN_POINT('',(31.5,71.,15.));
#274 = LINE('',#275,#276);
#275 = CARTESIAN_POINT('',(60.,71.,15.));
#276 = VECTOR('',#277,1.);
#277 = DIRECTION('',(-1.,-1.1E-16,0.));
#278 = ORIENTED_EDGE('',*,*,#279,.F.);
#279 = EDGE_CURVE('',#280,#272,#282,.T.);
#280 = VERTEX_POINT('',#281);
#281 = CARTESIAN_POINT('',(31.,70.5,15.));
#282 = CIRCLE('',#283,0.5);
#283 = AXIS2_PLACEMENT_3D('',#284,#285,#286);
#284 = CARTESIAN_POINT('',(31.5,70.5,15.));
#285 = DIRECTION('',(-0.,-0.,-1.));
#286 = DIRECTION('',(0.,-1.,0.));
#287 = ORIENTED_EDGE('',*,*,#288,.F.);
#288 = EDGE_CURVE('',#214,#280,#289,.T.);
#289 = LINE('',#290,#291);
#290 = CARTESIAN_POINT('',(31.,58.509990925582,15.));
#291 = VECTOR('',#292,1.);
#292 = DIRECTION('',(-1.1E-16,1.,0.));
#293 = ORIENTED_EDGE('',*,*,#213,.F.);
#294 = FACE_BOUND('',#295,.F.);
#295 = EDGE_LOOP('',(#296));
#296 = ORIENTED_EDGE('',*,*,#297,.T.);
#297 = EDGE_CURVE('',#298,#298,#300,.T.);
#298 = VERTEX_POINT('',#299);
#299 = CARTESIAN_POINT('',(32.5,10.,15.));
#300 = CIRCLE('',#301,2.5);
#301 = AXIS2_PLACEMENT_3D('',#302,#303,#304);
#302 = CARTESIAN_POINT('',(30.,10.,15.));
#303 = DIRECTION('',(0.,-0.,1.));
#304 = DIRECTION('',(1.,1.1E-16,0.));
#305 = FACE_BOUND('',#306,.F.);
#306 = EDGE_LOOP('',(#307));
#307 = ORIENTED_EDGE('',*,*,#308,.T.);
#308 = EDGE_CURVE('',#309,#309,#311,.T.);
#309 = VERTEX_POINT('',#310);
#310 = CARTESIAN_POINT('',(52.5,10.,15.));
#311 = CIRCLE('',#312,2.5);
#312 = AXIS2_PLACEMENT_3D('',#313,#314,#315);
#313 = CARTESIAN_POINT('',(50.,10.,15.));
#314 = DIRECTION('',(0.,-0.,1.));
#315 = DIRECTION('',(1.,1.1E-16,0.));
#316 = FACE_BOUND('',#317,.F.);
#317 = EDGE_LOOP('',(#318));
#318 = ORIENTED_EDGE('',*,*,#319,.T.);
#319 = EDGE_CURVE('',#320,#320,#322,.T.);
#320 = VERTEX_POINT('',#321);
#321 = CARTESIAN_POINT('',(12.5,10.,15.));
#322 = CIRCLE('',#323,2.5);
#323 = AXIS2_PLACEMENT_3D('',#324,#325,#326);
#324 = CARTESIAN_POINT('',(10.,10.,15.));
#325 = DIRECTION('',(0.,-0.,1.));
#326 = DIRECTION('',(1.,1.1E-16,0.));
#327 = PLANE('',#328);
#328 = AXIS2_PLACEMENT_3D('',#329,#330,#331);
#329 = CARTESIAN_POINT('',(30.,35.927803017852,15.));
#330 = DIRECTION('',(0.,0.,1.));
#331 = DIRECTION('',(1.,1.1E-16,0.));
#332 = ADVANCED_FACE('',(#333),#352,.F.);
#333 = FACE_BOUND('',#334,.T.);
#334 = EDGE_LOOP('',(#335,#343,#350,#351));
#335 = ORIENTED_EDGE('',*,*,#336,.F.);
#336 = EDGE_CURVE('',#337,#56,#339,.T.);
#337 = VERTEX_POINT('',#338);
#338 = CARTESIAN_POINT('',(15.,64.000001,10.8));
#339 = LINE('',#340,#341);
#340 = CARTESIAN_POINT('',(15.,64.000001,10.8));
#341 = VECTOR('',#342,1.);
#342 = DIRECTION('',(1.,0.,-6.E-17));
#343 = ORIENTED_EDGE('',*,*,#344,.T.);
#344 = EDGE_CURVE('',#337,#337,#345,.T.);
#345 = CIRCLE('',#346,3.3);
#346 = AXIS2_PLACEMENT_3D('',#347,#348,#349);
#347 = CARTESIAN_POINT('',(15.,64.000001,7.5));
#348 = DIRECTION('',(-1.,0.,0.));
#349 = DIRECTION('',(0.,0.,1.));
#350 = ORIENTED_EDGE('',*,*,#336,.T.);
#351 = ORIENTED_EDGE('',*,*,#55,.T.);
#352 = CYLINDRICAL_SURFACE('',#353,3.3);
#353 = AXIS2_PLACEMENT_3D('',#354,#355,#356);
#354 = CARTESIAN_POINT('',(15.,64.000001,7.5));
#355 = DIRECTION('',(1.,0.,0.));
#356 = DIRECTION('',(0.,0.,1.));
#357 = ADVANCED_FACE('',(#358),#369,.F.);
#358 = FACE_BOUND('',#359,.F.);
#359 = EDGE_LOOP('',(#360,#361,#362,#363));
#360 = ORIENTED_EDGE('',*,*,#82,.F.);
#361 = ORIENTED_EDGE('',*,*,#188,.T.);
#362 = ORIENTED_EDGE('',*,*,#239,.T.);
#363 = ORIENTED_EDGE('',*,*,#364,.F.);
#364 = EDGE_CURVE('',#83,#240,#365,.T.);
#365 = LINE('',#366,#367);
#366 = CARTESIAN_POINT('',(0.,71.,0.));
#367 = VECTOR('',#368,1.);
#368 = DIRECTION('',(0.,0.,1.));
#369 = PLANE('',#370);
#370 = AXIS2_PLACEMENT_3D('',#371,#372,#373);
#371 = CARTESIAN_POINT('',(29.,71.,0.));
#372 = DIRECTION('',(1.1E-16,-1.,0.));
#373 = DIRECTION('',(-1.,-1.1E-16,0.));
#374 = ADVANCED_FACE('',(#375,#386),#397,.T.);
#375 = FACE_BOUND('',#376,.T.);
#376 = EDGE_LOOP('',(#377,#378,#379,#380));
#377 = ORIENTED_EDGE('',*,*,#131,.F.);
#378 = ORIENTED_EDGE('',*,*,#222,.T.);
#379 = ORIENTED_EDGE('',*,*,#288,.T.);
#380 = ORIENTED_EDGE('',*,*,#381,.F.);
#381 = EDGE_CURVE('',#123,#280,#382,.T.);
#382 = LINE('',#383,#384);
#383 = CARTESIAN_POINT('',(31.,70.5,0.));
#384 = VECTOR('',#385,1.);
#385 = DIRECTION('',(0.,0.,1.));
#386 = FACE_BOUND('',#387,.T.);
#387 = EDGE_LOOP('',(#388));
#388 = ORIENTED_EDGE('',*,*,#389,.T.);
#389 = EDGE_CURVE('',#390,#390,#392,.T.);
#390 = VERTEX_POINT('',#391);
#391 = CARTESIAN_POINT('',(31.,64.000001,10.8));
#392 = CIRCLE('',#393,3.3);
#393 = AXIS2_PLACEMENT_3D('',#394,#395,#396);
#394 = CARTESIAN_POINT('',(31.,64.000001,7.5));
#395 = DIRECTION('',(1.,0.,-0.));
#396 = DIRECTION('',(0.,0.,1.));
#397 = PLANE('',#398);
#398 = AXIS2_PLACEMENT_3D('',#399,#400,#401);
#399 = CARTESIAN_POINT('',(31.,58.509990925582,0.));
#400 = DIRECTION('',(-1.,-1.1E-16,0.));
#401 = DIRECTION('',(-1.1E-16,1.,0.));
#402 = ADVANCED_FACE('',(#403,#414),#425,.F.);
#403 = FACE_BOUND('',#404,.F.);
#404 = EDGE_LOOP('',(#405,#406,#407,#413));
#405 = ORIENTED_EDGE('',*,*,#364,.T.);
#406 = ORIENTED_EDGE('',*,*,#247,.T.);
#407 = ORIENTED_EDGE('',*,*,#408,.F.);
#408 = EDGE_CURVE('',#91,#248,#409,.T.);
#409 = LINE('',#410,#411);
#410 = CARTESIAN_POINT('',(0.,-7.105427357601E-15,0.));
#411 = VECTOR('',#412,1.);
#412 = DIRECTION('',(0.,0.,1.));
#413 = ORIENTED_EDGE('',*,*,#90,.F.);
#414 = FACE_BOUND('',#415,.F.);
#415 = EDGE_LOOP('',(#416));
#416 = ORIENTED_EDGE('',*,*,#417,.T.);
#417 = EDGE_CURVE('',#418,#418,#420,.T.);
#418 = VERTEX_POINT('',#419);
#419 = CARTESIAN_POINT('',(7.105427357601E-15,64.000001,13.));
#420 = CIRCLE('',#421,5.5);
#421 = AXIS2_PLACEMENT_3D('',#422,#423,#424);
#422 = CARTESIAN_POINT('',(7.105427357601E-15,64.000001,7.5));
#423 = DIRECTION('',(-1.,0.,0.));
#424 = DIRECTION('',(0.,0.,1.));
#425 = PLANE('',#426);
#426 = AXIS2_PLACEMENT_3D('',#427,#428,#429);
#427 = CARTESIAN_POINT('',(0.,71.,0.));
#428 = DIRECTION('',(1.,1.1E-16,0.));
#429 = DIRECTION('',(1.1E-16,-1.,0.));
#430 = ADVANCED_FACE('',(#431),#442,.T.);
#431 = FACE_BOUND('',#432,.F.);
#432 = EDGE_LOOP('',(#433,#434,#440,#441));
#433 = ORIENTED_EDGE('',*,*,#122,.T.);
#434 = ORIENTED_EDGE('',*,*,#435,.T.);
#435 = EDGE_CURVE('',#115,#272,#436,.T.);
#436 = LINE('',#437,#438);
#437 = CARTESIAN_POINT('',(31.5,71.,0.));
#438 = VECTOR('',#439,1.);
#439 = DIRECTION('',(0.,0.,1.));
#440 = ORIENTED_EDGE('',*,*,#279,.F.);
#441 = ORIENTED_EDGE('',*,*,#381,.F.);
#442 = CYLINDRICAL_SURFACE('',#443,0.5);
#443 = AXIS2_PLACEMENT_3D('',#444,#445,#446);
#444 = CARTESIAN_POINT('',(31.5,70.5,0.));
#445 = DIRECTION('',(0.,0.,1.));
#446 = DIRECTION('',(-1.,1.1E-16,0.));
#447 = ADVANCED_FACE('',(#448),#459,.F.);
#448 = FACE_BOUND('',#449,.F.);
#449 = EDGE_LOOP('',(#450,#451,#452,#458));
#450 = ORIENTED_EDGE('',*,*,#408,.T.);
#451 = ORIENTED_EDGE('',*,*,#255,.T.);
#452 = ORIENTED_EDGE('',*,*,#453,.F.);
#453 = EDGE_CURVE('',#99,#256,#454,.T.);
#454 = LINE('',#455,#456);
#455 = CARTESIAN_POINT('',(60.,0.,0.));
#456 = VECTOR('',#457,1.);
#457 = DIRECTION('',(0.,0.,1.));
#458 = ORIENTED_EDGE('',*,*,#98,.F.);
#459 = PLANE('',#460);
#460 = AXIS2_PLACEMENT_3D('',#461,#462,#463);
#461 = CARTESIAN_POINT('',(0.,-7.105427357601E-15,0.));
#462 = DIRECTION('',(-1.1E-16,1.,0.));
#463 = DIRECTION('',(1.,1.1E-16,0.));
#464 = ADVANCED_FACE('',(#465),#476,.F.);
#465 = FACE_BOUND('',#466,.F.);
#466 = EDGE_LOOP('',(#467,#468,#474,#475));
#467 = ORIENTED_EDGE('',*,*,#114,.F.);
#468 = ORIENTED_EDGE('',*,*,#469,.T.);
#469 = EDGE_CURVE('',#107,#264,#470,.T.);
#470 = LINE('',#471,#472);
#471 = CARTESIAN_POINT('',(60.,71.,0.));
#472 = VECTOR('',#473,1.);
#473 = DIRECTION('',(0.,0.,1.));
#474 = ORIENTED_EDGE('',*,*,#271,.T.);
#475 = ORIENTED_EDGE('',*,*,#435,.F.);
#476 = PLANE('',#477);
#477 = AXIS2_PLACEMENT_3D('',#478,#479,#480);
#478 = CARTESIAN_POINT('',(60.,71.,0.));
#479 = DIRECTION('',(1.1E-16,-1.,0.));
#480 = DIRECTION('',(-1.,-1.1E-16,0.));
#481 = ADVANCED_FACE('',(#482,#488),#538,.F.);
#482 = FACE_BOUND('',#483,.F.);
#483 = EDGE_LOOP('',(#484,#485,#486,#487));
#484 = ORIENTED_EDGE('',*,*,#453,.T.);
#485 = ORIENTED_EDGE('',*,*,#263,.T.);
#486 = ORIENTED_EDGE('',*,*,#469,.F.);
#487 = ORIENTED_EDGE('',*,*,#106,.F.);
#488 = FACE_BOUND('',#489,.F.);
#489 = EDGE_LOOP('',(#490,#500,#508,#516,#524,#532));
#490 = ORIENTED_EDGE('',*,*,#491,.T.);
#491 = EDGE_CURVE('',#492,#494,#496,.T.);
#492 = VERTEX_POINT('',#493);
#493 = CARTESIAN_POINT('',(60.,58.99629104637,4.611107866025));
#494 = VERTEX_POINT('',#495);
#495 = CARTESIAN_POINT('',(60.,64.,1.722214));
#496 = LINE('',#497,#498);
#497 = CARTESIAN_POINT('',(60.,58.99629104637,4.611107866025));
#498 = VECTOR('',#499,1.);
#499 = DIRECTION('',(0.,0.866025317246,-0.500000149889));
#500 = ORIENTED_EDGE('',*,*,#501,.T.);
#501 = EDGE_CURVE('',#494,#502,#504,.T.);
#502 = VERTEX_POINT('',#503);
#503 = CARTESIAN_POINT('',(60.,69.00370995363,4.611106133975));
#504 = LINE('',#505,#506);
#505 = CARTESIAN_POINT('',(60.,64.,1.722214));
#506 = VECTOR('',#507,1.);
#507 = DIRECTION('',(0.,0.866025490323,0.499999850111));
#508 = ORIENTED_EDGE('',*,*,#509,.T.);
#509 = EDGE_CURVE('',#502,#510,#512,.T.);
#510 = VERTEX_POINT('',#511);
#511 = CARTESIAN_POINT('',(60.,69.00371095363,10.388892133975));
#512 = LINE('',#513,#514);
#513 = CARTESIAN_POINT('',(60.,69.00370995363,4.611106133975));
#514 = VECTOR('',#515,1.);
#515 = DIRECTION('',(0.,1.7307667757E-07,1.));
#516 = ORIENTED_EDGE('',*,*,#517,.T.);
#517 = EDGE_CURVE('',#510,#518,#520,.T.);
#518 = VERTEX_POINT('',#519);
#519 = CARTESIAN_POINT('',(60.,64.000002,13.277786));
#520 = LINE('',#521,#522);
#521 = CARTESIAN_POINT('',(60.,69.00371095363,10.388892133975));
#522 = VECTOR('',#523,1.);
#523 = DIRECTION('',(0.,-0.866025317246,0.500000149889));
#524 = ORIENTED_EDGE('',*,*,#525,.T.);
#525 = EDGE_CURVE('',#518,#526,#528,.T.);
#526 = VERTEX_POINT('',#527);
#527 = CARTESIAN_POINT('',(60.,58.99629204637,10.388893866025));
#528 = LINE('',#529,#530);
#529 = CARTESIAN_POINT('',(60.,64.000002,13.277786));
#530 = VECTOR('',#531,1.);
#531 = DIRECTION('',(0.,-0.866025490323,-0.499999850111));
#532 = ORIENTED_EDGE('',*,*,#533,.T.);
#533 = EDGE_CURVE('',#526,#492,#534,.T.);
#534 = LINE('',#535,#536);
#535 = CARTESIAN_POINT('',(60.,58.99629204637,10.388893866025));
#536 = VECTOR('',#537,1.);
#537 = DIRECTION('',(0.,-1.7307667757E-07,-1.));
#538 = PLANE('',#539);
#539 = AXIS2_PLACEMENT_3D('',#540,#541,#542);
#540 = CARTESIAN_POINT('',(60.,0.,0.));
#541 = DIRECTION('',(-1.,-1.1E-16,0.));
#542 = DIRECTION('',(-1.1E-16,1.,0.));
#543 = ADVANCED_FACE('',(#544),#563,.F.);
#544 = FACE_BOUND('',#545,.T.);
#545 = EDGE_LOOP('',(#546,#554,#561,#562));
#546 = ORIENTED_EDGE('',*,*,#547,.T.);
#547 = EDGE_CURVE('',#149,#548,#550,.T.);
#548 = VERTEX_POINT('',#549);
#549 = CARTESIAN_POINT('',(15.,10.,2.));
#550 = LINE('',#551,#552);
#551 = CARTESIAN_POINT('',(15.,10.,0.));
#552 = VECTOR('',#553,1.);
#553 = DIRECTION('',(0.,0.,1.));
#554 = ORIENTED_EDGE('',*,*,#555,.T.);
#555 = EDGE_CURVE('',#548,#548,#556,.T.);
#556 = CIRCLE('',#557,5.);
#557 = AXIS2_PLACEMENT_3D('',#558,#559,#560);
#558 = CARTESIAN_POINT('',(10.,10.,2.));
#559 = DIRECTION('',(0.,0.,1.));
#560 = DIRECTION('',(1.,0.,0.));
#561 = ORIENTED_EDGE('',*,*,#547,.F.);
#562 = ORIENTED_EDGE('',*,*,#148,.F.);
#563 = CYLINDRICAL_SURFACE('',#564,5.);
#564 = AXIS2_PLACEMENT_3D('',#565,#566,#567);
#565 = CARTESIAN_POINT('',(10.,10.,0.));
#566 = DIRECTION('',(-0.,-0.,-1.));
#567 = DIRECTION('',(1.,0.,0.));
#568 = ADVANCED_FACE('',(#569),#588,.F.);
#569 = FACE_BOUND('',#570,.T.);
#570 = EDGE_LOOP('',(#571,#579,#586,#587));
#571 = ORIENTED_EDGE('',*,*,#572,.T.);
#572 = EDGE_CURVE('',#160,#573,#575,.T.);
#573 = VERTEX_POINT('',#574);
#574 = CARTESIAN_POINT('',(50.,15.,2.));
#575 = LINE('',#576,#577);
#576 = CARTESIAN_POINT('',(50.,15.,0.));
#577 = VECTOR('',#578,1.);
#578 = DIRECTION('',(0.,0.,1.));
#579 = ORIENTED_EDGE('',*,*,#580,.T.);
#580 = EDGE_CURVE('',#573,#573,#581,.T.);
#581 = CIRCLE('',#582,5.);
#582 = AXIS2_PLACEMENT_3D('',#583,#584,#585);
#583 = CARTESIAN_POINT('',(50.,10.,2.));
#584 = DIRECTION('',(0.,-0.,1.));
#585 = DIRECTION('',(0.,1.,0.));
#586 = ORIENTED_EDGE('',*,*,#572,.F.);
#587 = ORIENTED_EDGE('',*,*,#159,.F.);
#588 = CYLINDRICAL_SURFACE('',#589,5.);
#589 = AXIS2_PLACEMENT_3D('',#590,#591,#592);
#590 = CARTESIAN_POINT('',(50.,10.,0.));
#591 = DIRECTION('',(0.,-0.,-1.));
#592 = DIRECTION('',(0.,1.,0.));
#593 = ADVANCED_FACE('',(#594),#613,.F.);
#594 = FACE_BOUND('',#595,.T.);
#595 = EDGE_LOOP('',(#596,#604,#611,#612));
#596 = ORIENTED_EDGE('',*,*,#597,.T.);
#597 = EDGE_CURVE('',#171,#598,#600,.T.);
#598 = VERTEX_POINT('',#599);
#599 = CARTESIAN_POINT('',(35.,10.,2.));
#600 = LINE('',#601,#602);
#601 = CARTESIAN_POINT('',(35.,10.,0.));
#602 = VECTOR('',#603,1.);
#603 = DIRECTION('',(0.,0.,1.));
#604 = ORIENTED_EDGE('',*,*,#605,.T.);
#605 = EDGE_CURVE('',#598,#598,#606,.T.);
#606 = CIRCLE('',#607,5.);
#607 = AXIS2_PLACEMENT_3D('',#608,#609,#610);
#608 = CARTESIAN_POINT('',(30.,10.,2.));
#609 = DIRECTION('',(0.,0.,1.));
#610 = DIRECTION('',(1.,0.,0.));
#611 = ORIENTED_EDGE('',*,*,#597,.F.);
#612 = ORIENTED_EDGE('',*,*,#170,.F.);
#613 = CYLINDRICAL_SURFACE('',#614,5.);
#614 = AXIS2_PLACEMENT_3D('',#615,#616,#617);
#615 = CARTESIAN_POINT('',(30.,10.,0.));
#616 = DIRECTION('',(-0.,-0.,-1.));
#617 = DIRECTION('',(1.,0.,0.));
#618 = ADVANCED_FACE('',(#619),#638,.F.);
#619 = FACE_BOUND('',#620,.T.);
#620 = EDGE_LOOP('',(#621,#630,#636,#637));
#621 = ORIENTED_EDGE('',*,*,#622,.T.);
#622 = EDGE_CURVE('',#623,#623,#625,.T.);
#623 = VERTEX_POINT('',#624);
#624 = CARTESIAN_POINT('',(32.5,10.,2.));
#625 = CIRCLE('',#626,2.5);
#626 = AXIS2_PLACEMENT_3D('',#627,#628,#629);
#627 = CARTESIAN_POINT('',(30.,10.,2.));
#628 = DIRECTION('',(0.,0.,-1.));
#629 = DIRECTION('',(1.,-1.1E-16,0.));
#630 = ORIENTED_EDGE('',*,*,#631,.T.);
#631 = EDGE_CURVE('',#623,#298,#632,.T.);
#632 = LINE('',#633,#634);
#633 = CARTESIAN_POINT('',(32.5,10.,0.));
#634 = VECTOR('',#635,1.);
#635 = DIRECTION('',(0.,0.,1.));
#636 = ORIENTED_EDGE('',*,*,#297,.T.);
#637 = ORIENTED_EDGE('',*,*,#631,.F.);
#638 = CYLINDRICAL_SURFACE('',#639,2.5);
#639 = AXIS2_PLACEMENT_3D('',#640,#641,#642);
#640 = CARTESIAN_POINT('',(30.,10.,0.));
#641 = DIRECTION('',(0.,0.,-1.));
#642 = DIRECTION('',(1.,1.1E-16,0.));
#643 = ADVANCED_FACE('',(#644),#663,.F.);
#644 = FACE_BOUND('',#645,.T.);
#645 = EDGE_LOOP('',(#646,#655,#661,#662));
#646 = ORIENTED_EDGE('',*,*,#647,.T.);
#647 = EDGE_CURVE('',#648,#648,#650,.T.);
#648 = VERTEX_POINT('',#649);
#649 = CARTESIAN_POINT('',(52.5,10.,2.));
#650 = CIRCLE('',#651,2.5);
#651 = AXIS2_PLACEMENT_3D('',#652,#653,#654);
#652 = CARTESIAN_POINT('',(50.,10.,2.));
#653 = DIRECTION('',(0.,0.,-1.));
#654 = DIRECTION('',(1.,1.1E-16,0.));
#655 = ORIENTED_EDGE('',*,*,#656,.T.);
#656 = EDGE_CURVE('',#648,#309,#657,.T.);
#657 = LINE('',#658,#659);
#658 = CARTESIAN_POINT('',(52.5,10.,0.));
#659 = VECTOR('',#660,1.);
#660 = DIRECTION('',(0.,0.,1.));
#661 = ORIENTED_EDGE('',*,*,#308,.T.);
#662 = ORIENTED_EDGE('',*,*,#656,.F.);
#663 = CYLINDRICAL_SURFACE('',#664,2.5);
#664 = AXIS2_PLACEMENT_3D('',#665,#666,#667);
#665 = CARTESIAN_POINT('',(50.,10.,0.));
#666 = DIRECTION('',(0.,0.,-1.));
#667 = DIRECTION('',(1.,1.1E-16,0.));
#668 = ADVANCED_FACE('',(#669),#688,.F.);
#669 = FACE_BOUND('',#670,.T.);
#670 = EDGE_LOOP('',(#671,#680,#686,#687));
#671 = ORIENTED_EDGE('',*,*,#672,.T.);
#672 = EDGE_CURVE('',#673,#673,#675,.T.);
#673 = VERTEX_POINT('',#674);
#674 = CARTESIAN_POINT('',(12.5,10.,2.));
#675 = CIRCLE('',#676,2.5);
#676 = AXIS2_PLACEMENT_3D('',#677,#678,#679);
#677 = CARTESIAN_POINT('',(10.,10.,2.));
#678 = DIRECTION('',(0.,0.,-1.));
#679 = DIRECTION('',(1.,-1.1E-16,0.));
#680 = ORIENTED_EDGE('',*,*,#681,.T.);
#681 = EDGE_CURVE('',#673,#320,#682,.T.);
#682 = LINE('',#683,#684);
#683 = CARTESIAN_POINT('',(12.5,10.,0.));
#684 = VECTOR('',#685,1.);
#685 = DIRECTION('',(0.,0.,1.));
#686 = ORIENTED_EDGE('',*,*,#319,.T.);
#687 = ORIENTED_EDGE('',*,*,#681,.F.);
#688 = CYLINDRICAL_SURFACE('',#689,2.5);
#689 = AXIS2_PLACEMENT_3D('',#690,#691,#692);
#690 = CARTESIAN_POINT('',(10.,10.,0.));
#691 = DIRECTION('',(0.,0.,-1.));
#692 = DIRECTION('',(1.,1.1E-16,0.));
#693 = ADVANCED_FACE('',(#694,#705),#708,.T.);
#694 = FACE_BOUND('',#695,.T.);
#695 = EDGE_LOOP('',(#696));
#696 = ORIENTED_EDGE('',*,*,#697,.T.);
#697 = EDGE_CURVE('',#698,#698,#700,.T.);
#698 = VERTEX_POINT('',#699);
#699 = CARTESIAN_POINT('',(15.,64.000001,13.));
#700 = CIRCLE('',#701,5.5);
#701 = AXIS2_PLACEMENT_3D('',#702,#703,#704);
#702 = CARTESIAN_POINT('',(15.,64.000001,7.5));
#703 = DIRECTION('',(-1.,0.,0.));
#704 = DIRECTION('',(0.,0.,1.));
#705 = FACE_BOUND('',#706,.T.);
#706 = EDGE_LOOP('',(#707));
#707 = ORIENTED_EDGE('',*,*,#344,.F.);
#708 = PLANE('',#709);
#709 = AXIS2_PLACEMENT_3D('',#710,#711,#712);
#710 = CARTESIAN_POINT('',(15.,64.000001,7.5));
#711 = DIRECTION('',(-1.,0.,0.));
#712 = DIRECTION('',(0.,0.,1.));
#713 = ADVANCED_FACE('',(#714),#733,.F.);
#714 = FACE_BOUND('',#715,.T.);
#715 = EDGE_LOOP('',(#716,#724,#725,#726));
#716 = ORIENTED_EDGE('',*,*,#717,.F.);
#717 = EDGE_CURVE('',#390,#718,#720,.T.);
#718 = VERTEX_POINT('',#719);
#719 = CARTESIAN_POINT('',(45.,64.000001,10.8));
#720 = LINE('',#721,#722);
#721 = CARTESIAN_POINT('',(15.,64.000001,10.8));
#722 = VECTOR('',#723,1.);
#723 = DIRECTION('',(1.,0.,-6.E-17));
#724 = ORIENTED_EDGE('',*,*,#389,.F.);
#725 = ORIENTED_EDGE('',*,*,#717,.T.);
#726 = ORIENTED_EDGE('',*,*,#727,.T.);
#727 = EDGE_CURVE('',#718,#718,#728,.T.);
#728 = CIRCLE('',#729,3.3);
#729 = AXIS2_PLACEMENT_3D('',#730,#731,#732);
#730 = CARTESIAN_POINT('',(45.,64.000001,7.5));
#731 = DIRECTION('',(1.,0.,-0.));
#732 = DIRECTION('',(0.,0.,1.));
#733 = CYLINDRICAL_SURFACE('',#734,3.3);
#734 = AXIS2_PLACEMENT_3D('',#735,#736,#737);
#735 = CARTESIAN_POINT('',(15.,64.000001,7.5));
#736 = DIRECTION('',(1.,0.,0.));
#737 = DIRECTION('',(0.,0.,1.));
#738 = ADVANCED_FACE('',(#739),#750,.F.);
#739 = FACE_BOUND('',#740,.T.);
#740 = EDGE_LOOP('',(#741,#742,#748,#749));
#741 = ORIENTED_EDGE('',*,*,#417,.T.);
#742 = ORIENTED_EDGE('',*,*,#743,.T.);
#743 = EDGE_CURVE('',#418,#698,#744,.T.);
#744 = LINE('',#745,#746);
#745 = CARTESIAN_POINT('',(7.105427357601E-15,64.000001,13.));
#746 = VECTOR('',#747,1.);
#747 = DIRECTION('',(1.,0.,0.));
#748 = ORIENTED_EDGE('',*,*,#697,.F.);
#749 = ORIENTED_EDGE('',*,*,#743,.F.);
#750 = CYLINDRICAL_SURFACE('',#751,5.5);
#751 = AXIS2_PLACEMENT_3D('',#752,#753,#754);
#752 = CARTESIAN_POINT('',(7.105427357601E-15,64.000001,7.5));
#753 = DIRECTION('',(1.,0.,0.));
#754 = DIRECTION('',(0.,0.,1.));
#755 = ADVANCED_FACE('',(#756),#781,.F.);
#756 = FACE_BOUND('',#757,.F.);
#757 = EDGE_LOOP('',(#758,#766,#774,#780));
#758 = ORIENTED_EDGE('',*,*,#759,.T.);
#759 = EDGE_CURVE('',#492,#760,#762,.T.);
#760 = VERTEX_POINT('',#761);
#761 = CARTESIAN_POINT('',(45.,58.99629104637,4.611107866025));
#762 = LINE('',#763,#764);
#763 = CARTESIAN_POINT('',(60.,58.99629104637,4.611107866025));
#764 = VECTOR('',#765,1.);
#765 = DIRECTION('',(-1.,-0.,-0.));
#766 = ORIENTED_EDGE('',*,*,#767,.T.);
#767 = EDGE_CURVE('',#760,#768,#770,.T.);
#768 = VERTEX_POINT('',#769);
#769 = CARTESIAN_POINT('',(45.,64.,1.722214));
#770 = LINE('',#771,#772);
#771 = CARTESIAN_POINT('',(45.,58.99629104637,4.611107866025));
#772 = VECTOR('',#773,1.);
#773 = DIRECTION('',(0.,0.866025317246,-0.500000149889));
#774 = ORIENTED_EDGE('',*,*,#775,.F.);
#775 = EDGE_CURVE('',#494,#768,#776,.T.);
#776 = LINE('',#777,#778);
#777 = CARTESIAN_POINT('',(60.,64.,1.722214));
#778 = VECTOR('',#779,1.);
#779 = DIRECTION('',(-1.,-0.,-0.));
#780 = ORIENTED_EDGE('',*,*,#491,.F.);
#781 = PLANE('',#782);
#782 = AXIS2_PLACEMENT_3D('',#783,#784,#785);
#783 = CARTESIAN_POINT('',(60.,58.99629104637,4.611107866025));
#784 = DIRECTION('',(0.,-0.500000149889,-0.866025317246));
#785 = DIRECTION('',(0.,0.866025317246,-0.500000149889));
#786 = ADVANCED_FACE('',(#787),#805,.F.);
#787 = FACE_BOUND('',#788,.F.);
#788 = EDGE_LOOP('',(#789,#797,#803,#804));
#789 = ORIENTED_EDGE('',*,*,#790,.T.);
#790 = EDGE_CURVE('',#526,#791,#793,.T.);
#791 = VERTEX_POINT('',#792);
#792 = CARTESIAN_POINT('',(45.,58.99629204637,10.388893866025));
#793 = LINE('',#794,#795);
#794 = CARTESIAN_POINT('',(60.,58.99629204637,10.388893866025));
#795 = VECTOR('',#796,1.);
#796 = DIRECTION('',(-1.,-0.,-0.));
#797 = ORIENTED_EDGE('',*,*,#798,.T.);
#798 = EDGE_CURVE('',#791,#760,#799,.T.);
#799 = LINE('',#800,#801);
#800 = CARTESIAN_POINT('',(45.,58.99629204637,10.388893866025));
#801 = VECTOR('',#802,1.);
#802 = DIRECTION('',(0.,-1.7307667757E-07,-1.));
#803 = ORIENTED_EDGE('',*,*,#759,.F.);
#804 = ORIENTED_EDGE('',*,*,#533,.F.);
#805 = PLANE('',#806);
#806 = AXIS2_PLACEMENT_3D('',#807,#808,#809);
#807 = CARTESIAN_POINT('',(60.,58.99629204637,10.388893866025));
#808 = DIRECTION('',(0.,-1.,1.7307667757E-07));
#809 = DIRECTION('',(0.,-1.7307667757E-07,-1.));
#810 = ADVANCED_FACE('',(#811),#829,.F.);
#811 = FACE_BOUND('',#812,.F.);
#812 = EDGE_LOOP('',(#813,#821,#827,#828));
#813 = ORIENTED_EDGE('',*,*,#814,.T.);
#814 = EDGE_CURVE('',#518,#815,#817,.T.);
#815 = VERTEX_POINT('',#816);
#816 = CARTESIAN_POINT('',(45.,64.000002,13.277786));
#817 = LINE('',#818,#819);
#818 = CARTESIAN_POINT('',(60.,64.000002,13.277786));
#819 = VECTOR('',#820,1.);
#820 = DIRECTION('',(-1.,-0.,-0.));
#821 = ORIENTED_EDGE('',*,*,#822,.T.);
#822 = EDGE_CURVE('',#815,#791,#823,.T.);
#823 = LINE('',#824,#825);
#824 = CARTESIAN_POINT('',(45.,64.000002,13.277786));
#825 = VECTOR('',#826,1.);
#826 = DIRECTION('',(0.,-0.866025490323,-0.499999850111));
#827 = ORIENTED_EDGE('',*,*,#790,.F.);
#828 = ORIENTED_EDGE('',*,*,#525,.F.);
#829 = PLANE('',#830);
#830 = AXIS2_PLACEMENT_3D('',#831,#832,#833);
#831 = CARTESIAN_POINT('',(60.,64.000002,13.277786));
#832 = DIRECTION('',(0.,-0.499999850111,0.866025490323));
#833 = DIRECTION('',(0.,-0.866025490323,-0.499999850111));
#834 = ADVANCED_FACE('',(#835),#853,.F.);
#835 = FACE_BOUND('',#836,.F.);
#836 = EDGE_LOOP('',(#837,#845,#851,#852));
#837 = ORIENTED_EDGE('',*,*,#838,.T.);
#838 = EDGE_CURVE('',#510,#839,#841,.T.);
#839 = VERTEX_POINT('',#840);
#840 = CARTESIAN_POINT('',(45.,69.00371095363,10.388892133975));
#841 = LINE('',#842,#843);
#842 = CARTESIAN_POINT('',(60.,69.00371095363,10.388892133975));
#843 = VECTOR('',#844,1.);
#844 = DIRECTION('',(-1.,-0.,-0.));
#845 = ORIENTED_EDGE('',*,*,#846,.T.);
#846 = EDGE_CURVE('',#839,#815,#847,.T.);
#847 = LINE('',#848,#849);
#848 = CARTESIAN_POINT('',(45.,69.00371095363,10.388892133975));
#849 = VECTOR('',#850,1.);
#850 = DIRECTION('',(0.,-0.866025317246,0.500000149889));
#851 = ORIENTED_EDGE('',*,*,#814,.F.);
#852 = ORIENTED_EDGE('',*,*,#517,.F.);
#853 = PLANE('',#854);
#854 = AXIS2_PLACEMENT_3D('',#855,#856,#857);
#855 = CARTESIAN_POINT('',(60.,69.00371095363,10.388892133975));
#856 = DIRECTION('',(0.,0.500000149889,0.866025317246));
#857 = DIRECTION('',(0.,-0.866025317246,0.500000149889));
#858 = ADVANCED_FACE('',(#859),#877,.F.);
#859 = FACE_BOUND('',#860,.F.);
#860 = EDGE_LOOP('',(#861,#869,#875,#876));
#861 = ORIENTED_EDGE('',*,*,#862,.T.);
#862 = EDGE_CURVE('',#502,#863,#865,.T.);
#863 = VERTEX_POINT('',#864);
#864 = CARTESIAN_POINT('',(45.,69.00370995363,4.611106133975));
#865 = LINE('',#866,#867);
#866 = CARTESIAN_POINT('',(60.,69.00370995363,4.611106133975));
#867 = VECTOR('',#868,1.);
#868 = DIRECTION('',(-1.,-0.,-0.));
#869 = ORIENTED_EDGE('',*,*,#870,.T.);
#870 = EDGE_CURVE('',#863,#839,#871,.T.);
#871 = LINE('',#872,#873);
#872 = CARTESIAN_POINT('',(45.,69.00370995363,4.611106133975));
#873 = VECTOR('',#874,1.);
#874 = DIRECTION('',(0.,1.7307667757E-07,1.));
#875 = ORIENTED_EDGE('',*,*,#838,.F.);
#876 = ORIENTED_EDGE('',*,*,#509,.F.);
#877 = PLANE('',#878);
#878 = AXIS2_PLACEMENT_3D('',#879,#880,#881);
#879 = CARTESIAN_POINT('',(60.,69.00370995363,4.611106133975));
#880 = DIRECTION('',(0.,1.,-1.7307667757E-07));
#881 = DIRECTION('',(0.,1.7307667757E-07,1.));
#882 = ADVANCED_FACE('',(#883),#894,.F.);
#883 = FACE_BOUND('',#884,.F.);
#884 = EDGE_LOOP('',(#885,#886,#892,#893));
#885 = ORIENTED_EDGE('',*,*,#775,.T.);
#886 = ORIENTED_EDGE('',*,*,#887,.T.);
#887 = EDGE_CURVE('',#768,#863,#888,.T.);
#888 = LINE('',#889,#890);
#889 = CARTESIAN_POINT('',(45.,64.,1.722214));
#890 = VECTOR('',#891,1.);
#891 = DIRECTION('',(0.,0.866025490323,0.499999850111));
#892 = ORIENTED_EDGE('',*,*,#862,.F.);
#893 = ORIENTED_EDGE('',*,*,#501,.F.);
#894 = PLANE('',#895);
#895 = AXIS2_PLACEMENT_3D('',#896,#897,#898);
#896 = CARTESIAN_POINT('',(60.,64.,1.722214));
#897 = DIRECTION('',(0.,0.499999850111,-0.866025490323));
#898 = DIRECTION('',(0.,0.866025490323,0.499999850111));
#899 = ADVANCED_FACE('',(#900,#903),#906,.F.);
#900 = FACE_BOUND('',#901,.F.);
#901 = EDGE_LOOP('',(#902));
#902 = ORIENTED_EDGE('',*,*,#555,.T.);
#903 = FACE_BOUND('',#904,.F.);
#904 = EDGE_LOOP('',(#905));
#905 = ORIENTED_EDGE('',*,*,#672,.T.);
#906 = PLANE('',#907);
#907 = AXIS2_PLACEMENT_3D('',#908,#909,#910);
#908 = CARTESIAN_POINT('',(10.,10.,2.));
#909 = DIRECTION('',(0.,0.,1.));
#910 = DIRECTION('',(1.,0.,0.));
#911 = ADVANCED_FACE('',(#912,#915),#918,.F.);
#912 = FACE_BOUND('',#913,.F.);
#913 = EDGE_LOOP('',(#914));
#914 = ORIENTED_EDGE('',*,*,#580,.T.);
#915 = FACE_BOUND('',#916,.F.);
#916 = EDGE_LOOP('',(#917));
#917 = ORIENTED_EDGE('',*,*,#647,.T.);
#918 = PLANE('',#919);
#919 = AXIS2_PLACEMENT_3D('',#920,#921,#922);
#920 = CARTESIAN_POINT('',(50.,10.,2.));
#921 = DIRECTION('',(0.,0.,1.));
#922 = DIRECTION('',(0.,1.,0.));
#923 = ADVANCED_FACE('',(#924,#927),#930,.F.);
#924 = FACE_BOUND('',#925,.F.);
#925 = EDGE_LOOP('',(#926));
#926 = ORIENTED_EDGE('',*,*,#605,.T.);
#927 = FACE_BOUND('',#928,.F.);
#928 = EDGE_LOOP('',(#929));
#929 = ORIENTED_EDGE('',*,*,#622,.T.);
#930 = PLANE('',#931);
#931 = AXIS2_PLACEMENT_3D('',#932,#933,#934);
#932 = CARTESIAN_POINT('',(30.,10.,2.));
#933 = DIRECTION('',(0.,0.,1.));
#934 = DIRECTION('',(1.,0.,0.));
#935 = ADVANCED_FACE('',(#936,#944),#947,.T.);
#936 = FACE_BOUND('',#937,.T.);
#937 = EDGE_LOOP('',(#938,#939,#940,#941,#942,#943));
#938 = ORIENTED_EDGE('',*,*,#887,.T.);
#939 = ORIENTED_EDGE('',*,*,#870,.T.);
#940 = ORIENTED_EDGE('',*,*,#846,.T.);
#941 = ORIENTED_EDGE('',*,*,#822,.T.);
#942 = ORIENTED_EDGE('',*,*,#798,.T.);
#943 = ORIENTED_EDGE('',*,*,#767,.T.);
#944 = FACE_BOUND('',#945,.T.);
#945 = EDGE_LOOP('',(#946));
#946 = ORIENTED_EDGE('',*,*,#727,.F.);
#947 = PLANE('',#948);
#948 = AXIS2_PLACEMENT_3D('',#949,#950,#951);
#949 = CARTESIAN_POINT('',(45.,64.000001,7.5));
#950 = DIRECTION('',(1.,0.,0.));
#951 = DIRECTION('',(0.,0.,1.));
#952 = ( GEOMETRIC_REPRESENTATION_CONTEXT(3) 
GLOBAL_UNCERTAINTY_ASSIGNED_CONTEXT((#956)) GLOBAL_UNIT_ASSIGNED_CONTEXT
((#953,#954,#955)) REPRESENTATION_CONTEXT('Context #1',
  '3D Context with UNIT and UNCERTAINTY') );
#953 = ( LENGTH_UNIT() NAMED_UNIT(*) SI_UNIT(.MILLI.,.METRE.) );
#954 = ( NAMED_UNIT(*) PLANE_ANGLE_UNIT() SI_UNIT($,.RADIAN.) );
#955 = ( NAMED_UNIT(*) SI_UNIT($,.STERADIAN.) SOLID_ANGLE_UNIT() );
#956 = UNCERTAINTY_MEASURE_WITH_UNIT(LENGTH_MEASURE(1.E-07),#953,
  'distance_accuracy_value','confusion accuracy');
#957 = PRODUCT_RELATED_PRODUCT_CATEGORY('part',$,(#7));
#958 = MECHANICAL_DESIGN_GEOMETRIC_PRESENTATION_REPRESENTATION('',(#959)
  ,#952);
#959 = STYLED_ITEM('color',(#960),#15);
#960 = PRESENTATION_STYLE_ASSIGNMENT((#961,#967));
#961 = SURFACE_STYLE_USAGE(.BOTH.,#962);
#962 = SURFACE_SIDE_STYLE('',(#963));
#963 = SURFACE_STYLE_FILL_AREA(#964);
#964 = FILL_AREA_STYLE('',(#965));
#965 = FILL_AREA_STYLE_COLOUR('',#966);
#966 = COLOUR_RGB('',0.447058818107,0.474509808674,0.501960817233);
#967 = CURVE_STYLE('',#968,POSITIVE_LENGTH_MEASURE(0.1),#969);
#968 = DRAUGHTING_PRE_DEFINED_CURVE_FONT('continuous');
#969 = COLOUR_RGB('',9.803921802644E-02,9.803921802644E-02,
  9.803921802644E-02);
ENDSEC;
END-ISO-10303-21;
